{
	"asset":{
		"generator":"Khronos glTF Blender I/O v4.1.38",
		"version":"2.0"
	},
	"extensionsUsed":[
		"KHR_materials_specular",
		"KHR_materials_ior"
	],
	"scene":0,
	"scenes":[
		{
			"name":"Scene",
			"nodes":[
				0
			]
		}
	],
	"nodes":[
		{
			"mesh":0,
			"name":"Pentaxpoli"
		}
	],
	"materials":[
		{
			"doubleSided":true,
			"extensions":{
				"KHR_materials_specular":{
					"specularFactor":0
				},
				"KHR_materials_ior":{
					"ior":1
				}
			},
			"name":"texturalowpoli",
			"normalTexture":{
				"index":0,
				"scale":0.5999999642372131
			},
			"pbrMetallicRoughness":{
				"baseColorTexture":{
					"index":1
				},
				"metallicFactor":0.22272726893424988,
				"metallicRoughnessTexture":{
					"index":2
				}
			}
		}
	],
	"meshes":[
		{
			"name":"Pentaxpoli",
			"primitives":[
				{
					"attributes":{
						"POSITION":0,
						"NORMAL":1,
						"TEXCOORD_0":2
					},
					"indices":3,
					"material":0
				}
			]
		}
	],
	"textures":[
		{
			"sampler":0,
			"source":0
		},
		{
			"sampler":0,
			"source":1
		},
		{
			"sampler":0,
			"source":2
		}
	],
	"images":[
		{
			"mimeType":"image/png",
			"name":"normal_map",
			"uri":"normal_map.png"
		},
		{
			"mimeType":"image/png",
			"name":"baked_texture",
			"uri":"baked_texture.png"
		},
		{
			"mimeType":"image/png",
			"name":"RoughnessMapBake",
			"uri":"RoughnessMapBake.png"
		}
	],
	"accessors":[
		{
			"bufferView":0,
			"componentType":5126,
			"count":13232,
			"max":[
				2.351339340209961,
				1.6019186973571777,
				1.495080828666687
			],
			"min":[
				-2.9592251777648926,
				-1.1186445951461792,
				-0.9229295253753662
			],
			"type":"VEC3"
		},
		{
			"bufferView":1,
			"componentType":5126,
			"count":13232,
			"type":"VEC3"
		},
		{
			"bufferView":2,
			"componentType":5126,
			"count":13232,
			"type":"VEC2"
		},
		{
			"bufferView":3,
			"componentType":5123,
			"count":59553,
			"type":"SCALAR"
		}
	],
	"bufferViews":[
		{
			"buffer":0,
			"byteLength":158784,
			"byteOffset":0,
			"target":34962
		},
		{
			"buffer":0,
			"byteLength":158784,
			"byteOffset":158784,
			"target":34962
		},
		{
			"buffer":0,
			"byteLength":105856,
			"byteOffset":317568,
			"target":34962
		},
		{
			"buffer":0,
			"byteLength":119106,
			"byteOffset":423424,
			"target":34963
		}
	],
	"samplers":[
		{
			"magFilter":9729,
			"minFilter":9987
		}
	],
	"buffers":[
		{
			"byteLength":542532,
			"uri":"scene.bin"
		}
	]
}
